<svg
 xmlns="http://www.w3.org/2000/svg"
 xmlns:xlink="http://www.w3.org/1999/xlink"
 width="1177px" height="1177px"
 viewBox="0 0 1177 1177"
 >
<path fill-rule="evenodd"  opacity="0.149" fill="rgb(255, 255, 255)"
 d="M588.500,0.000 C913.519,0.000 1177.000,263.481 1177.000,588.500 C1177.000,913.519 913.519,1177.000 588.500,1177.000 C263.480,1177.000 -0.000,913.519 -0.000,588.500 C-0.000,263.481 263.480,0.000 588.500,0.000 Z"/>
<path fill-rule="evenodd"  opacity="0.149" fill="rgb(255, 255, 255)"
 d="M588.500,223.000 C790.360,223.000 954.000,386.640 954.000,588.500 C954.000,790.360 790.360,954.000 588.500,954.000 C386.640,954.000 223.000,790.360 223.000,588.500 C223.000,386.640 386.640,223.000 588.500,223.000 Z"/>
<path fill-rule="evenodd"  opacity="0.149" fill="rgb(255, 255, 255)"
 d="M589.000,398.000 C694.486,398.000 780.000,483.514 780.000,589.000 C780.000,694.486 694.486,780.000 589.000,780.000 C483.514,780.000 398.000,694.486 398.000,589.000 C398.000,483.514 483.514,398.000 589.000,398.000 Z"/>
<path fill-rule="evenodd"  opacity="0.149" fill="rgb(255, 255, 255)"
 d="M589.000,459.000 C660.797,459.000 719.000,517.203 719.000,589.000 C719.000,660.797 660.797,719.000 589.000,719.000 C517.203,719.000 459.000,660.797 459.000,589.000 C459.000,517.203 517.203,459.000 589.000,459.000 Z"/>
</svg>
