<?xml version="1.0" encoding="UTF-8" standalone="no"?>
<svg
   xmlns:dc="http://purl.org/dc/elements/1.1/"
   xmlns:cc="http://creativecommons.org/ns#"
   xmlns:rdf="http://www.w3.org/1999/02/22-rdf-syntax-ns#"
   xmlns:svg="http://www.w3.org/2000/svg"
   xmlns="http://www.w3.org/2000/svg"
   xmlns:sodipodi="http://sodipodi.sourceforge.net/DTD/sodipodi-0.dtd"
   xmlns:inkscape="http://www.inkscape.org/namespaces/inkscape"
   width="1177"
   height="820.4082"
   viewBox="0 0 1177 820.4082"
   version="1.1"
   id="svg10"
   sodipodi:docname="bg_header__circles3.svg"
   inkscape:version="0.92.2 (5c3e80d, 2017-08-06)">
  <metadata
     id="metadata16">
    <rdf:RDF>
      <cc:Work
         rdf:about="">
        <dc:format>image/svg+xml</dc:format>
        <dc:type
           rdf:resource="http://purl.org/dc/dcmitype/StillImage" />
        <dc:title></dc:title>
      </cc:Work>
    </rdf:RDF>
  </metadata>
  <defs
     id="defs14" />
  <sodipodi:namedview
     pagecolor="#ffffff"
     bordercolor="#666666"
     borderopacity="1"
     objecttolerance="10"
     gridtolerance="10"
     guidetolerance="10"
     inkscape:pageopacity="0"
     inkscape:pageshadow="2"
     inkscape:window-width="1680"
     inkscape:window-height="1028"
     id="namedview12"
     showgrid="false"
     showguides="true"
     inkscape:guide-bbox="true"
     fit-margin-top="0"
     fit-margin-left="0"
     fit-margin-right="0"
     fit-margin-bottom="0"
     inkscape:zoom="0.56712727"
     inkscape:cx="655.62065"
     inkscape:cy="452.0598"
     inkscape:window-x="1358"
     inkscape:window-y="-8"
     inkscape:window-maximized="1"
     inkscape:current-layer="svg10" />
  <path
     style="opacity:0.14900004;fill:#ffffff"
     d="M 47.46875,0 C 16.924599,71.16422 0,149.55831 0,231.9082 c 0,325.019 263.48,588.5 588.5,588.5 325.019,0 588.5,-263.481 588.5,-588.5 C 1177,149.55831 1160.0755,71.16422 1129.5312,0 Z"
     id="path2"
     inkscape:connector-curvature="0" />
  <path
     style="opacity:0.14900004;fill:#ffffff"
     d="M 304.9707,1.24609 C 253.72794,64.15721 223,144.4428 223,231.9082 c 0,201.86 163.64,365.5 365.5,365.5 201.86,0 365.5,-163.64 365.5,-365.5 C 954,144.4428 923.27206,64.15721 872.0293,1.24609 Z"
     id="path4"
     inkscape:connector-curvature="0" />
  <path
     d="m 589,41.4082 c 105.486,0 191,85.514 191,191 0,105.486 -85.514,191 -191,191 -105.486,0 -191,-85.514 -191,-191 0,-105.486 85.514,-191 191,-191 z"
     id="path6"
     style="opacity:0.14900004;fill:#ffffff;fill-rule:evenodd"
     inkscape:connector-curvature="0" />
  <path
     d="m 589,102.4082 c 71.797,0 130,58.203 130,130 0,71.797 -58.203,130 -130,130 -71.797,0 -130,-58.203 -130,-130 0,-71.797 58.203,-130 130,-130 z"
     id="path8"
     style="opacity:0.14900004;fill:#ffffff;fill-rule:evenodd"
     inkscape:connector-curvature="0" />
</svg>
