<?xml version="1.0" encoding="UTF-8" standalone="no"?>
<svg
   xmlns:dc="http://purl.org/dc/elements/1.1/"
   xmlns:cc="http://creativecommons.org/ns#"
   xmlns:rdf="http://www.w3.org/1999/02/22-rdf-syntax-ns#"
   xmlns:svg="http://www.w3.org/2000/svg"
   xmlns="http://www.w3.org/2000/svg"
   xmlns:sodipodi="http://sodipodi.sourceforge.net/DTD/sodipodi-0.dtd"
   xmlns:inkscape="http://www.inkscape.org/namespaces/inkscape"
   width="4429.7363"
   height="728.01508"
   viewBox="0 0 4429.7363 728.01508"
   version="1.1"
   id="svg7"
   sodipodi:docname="bg_hero__wave@1x.svg"
   inkscape:version="0.92.2 (5c3e80d, 2017-08-06)">
  <metadata
     id="metadata11">
    <rdf:RDF>
      <cc:Work
         rdf:about="">
        <dc:format>image/svg+xml</dc:format>
        <dc:type
           rdf:resource="http://purl.org/dc/dcmitype/StillImage" />
        <dc:title></dc:title>
      </cc:Work>
    </rdf:RDF>
  </metadata>
  <defs
     id="defs4">
    <style
       id="style2">
      .cls-1 {
        fill: #f9e7f3;
        fill-rule: evenodd;
      }
    </style>
  </defs>
  <path
     style="fill:#f9e7f3;fill-rule:evenodd"
     d="M 2492.7363,0 C 2441.4013,0 2287.1507,116.62237 2171.1912,106.6067 2055.2316,96.591042 1976.8591,7.578125 1926,7.578125 c -109.17,0 -142.05,90 -247,90 -113.01,0 -143.17,-90 -244,-90 -206.22,0 -199.873,93.000005 -337,93.000005 -137.127,0 -156.243,-93.000005 -276,-93.000005 -119.757,0 -166.976,93.000005 -269,93.000005 -116.167,0 -116.037,-93.000005 -245,-93.000005 -74.29503,0 -141.8864,58.701722 -203.34469,99.947505 C 54.848444,140.95192 3,158.57812 3,158.57812 l -3,568 c 0,0 4411.2386,2.93025 4428.7363,0.42191 l 1,-568 c 0,0 -72.3119,-3.27229 -132.3262,-41.25494 C 4238.1355,80.230631 4177.5717,2e-5 4110.7363,2e-5 c -128.963,0 -128.833,93 -245,93 -102.024,0 -149.243,-93 -269,-93 -119.757,0 -138.873,93 -276,93 -137.127,0 -130.78,-93 -337,-93 -100.83,0 -130.99,90 -244,90 -104.95,0 -137.83,-90 -247,-90 z"
     id="bg_hero__wave.svg"
     inkscape:connector-curvature="0"
     sodipodi:nodetypes="czssssssssccccssssssssc" />
</svg>
