<svg xmlns="http://www.w3.org/2000/svg" viewBox="0 0 4420 176.33">
  <g id="Слой_2" data-name="Слой 2">
    <g id="Слой_1-2" data-name="Слой 1">
      <rect width="4420" height="176" fill="#f9e7f3" />
      <path d="M4420,0V15.44s-72.31,3.29-132.32,41.73c-59.28,38-119.84,119.17-186.66,119.17-129,0-128.83-94.12-245-94.12-102,0-149.24,94.12-269,94.12s-138.87-94.12-276-94.12S3180.24,176.33,2974,176.33c-100.83,0-131-91.08-244-91.08-105,0-137.83,91.08-247,91.08-51.34,0-205.58-118-321.54-107.9S1967.19,168.68,1916.3,168.68c-109.17,0-142-91.08-247-91.08-113,0-143.17,91.08-244,91.08-206.21,0-199.86-94.12-337-94.12s-156.24,94.12-276,94.12-167-94.12-269-94.12c-116.16,0-116,94.12-245,94.12-74.29,0-141.88-59.41-203.34-101.16C56.17,41.15,26,21.67.33,15.4V0Z" fill="#fff" />
      <rect width="4420" height="1" fill="#fff" stroke="#fff" stroke-width="10" />
    </g>
  </g>
</svg>
