<svg xmlns="http://www.w3.org/2000/svg" width="23" height="18.03" viewBox="0 0 23 18.03">
  <defs>
    <style>
      .cls-1 {
        fill: #fff;
        fill-rule: evenodd;
      }
    </style>
  </defs>
  <path id="i_arrow-right.svg" class="cls-1" d="M1596,2047h21a1,1,0,0,1,0,2h-21A1,1,0,0,1,1596,2047Zm13.73-7.72,7.95,7.95a1.026,1.026,0,0,1,0,1.45,1.014,1.014,0,0,1-1.44,0l-7.96-7.95a1.045,1.045,0,0,1,0-1.45A1.026,1.026,0,0,1,1609.73,2039.28Zm0,17.43,7.95-7.95a1.026,1.026,0,0,0,0-1.45,1.014,1.014,0,0,0-1.44,0l-7.96,7.96A1.022,1.022,0,0,0,1609.73,2056.71Z" transform="translate(-1595 -2039)"/>
</svg>
