<svg xmlns="http://www.w3.org/2000/svg" width="12" height="14" viewBox="0 0 12 14">
  <defs>
    <style>
      .cls-1 {
        fill: #9d669b;
        fill-rule: evenodd;
      }
    </style>
  </defs>
  <path id="i_flag.svg" class="cls-1" d="M926.988,4173.66a2.59,2.59,0,0,0-1.472-1.15,27.245,27.245,0,0,0-4.5.71,1.525,1.525,0,0,1-1.06-.88c-0.009-.03-0.019-0.07-0.028-0.11v5.79a0.963,0.963,0,1,1-1.926,0v-12.05a0.963,0.963,0,1,1,1.926,0v0.23a4.944,4.944,0,0,0,2.868.53c2.955-.23,4.6-0.77,5.873-0.08a2.13,2.13,0,0,1,1.333,1.36Z" transform="translate(-918 -4165)"/>
</svg>
